<svg width="32" height="32" viewBox="0 0 32 32" fill="none" xmlns="http://www.w3.org/2000/svg">
<g clip-path="url(#clip0_19453_14529)">
<path d="M1.50475 23.8693L15.5047 31.8693C15.6559 31.9557 15.8269 32.0011 16.001 32.0011C16.1751 32.0011 16.3461 31.9557 16.4972 31.8693L30.4972 23.8693C30.6506 23.7819 30.778 23.6555 30.8667 23.5029C30.9553 23.3504 31.002 23.177 31.002 23.0006C31.002 22.8241 30.9553 22.6508 30.8667 22.4982C30.778 22.3456 30.6506 22.2192 30.4972 22.1318L16.4972 14.1318C16.3461 14.0454 16.1751 14 16.001 14C15.8269 14 15.6559 14.0454 15.5047 14.1318L1.50475 22.1318C1.35145 22.2192 1.224 22.3456 1.13535 22.4982C1.0467 22.6508 1 22.8241 1 23.0006C1 23.177 1.0467 23.3504 1.13535 23.5029C1.224 23.6555 1.35145 23.7819 1.50475 23.8693Z" fill="#886800"/>
<path d="M16.0046 0C18.3908 0.00270689 20.6787 0.951431 22.366 2.63867C24.0532 4.32591 25.0019 6.61388 25.0046 9C25.0046 15.1264 20.3909 19.5568 16.0046 23.127C11.6183 19.5568 7.00464 15.1264 7.00464 9C7.00735 6.61388 7.95607 4.32591 9.64331 2.63867C11.3306 0.951431 13.6185 0.00270696 16.0046 0ZM16.0046 5.72754C15.1367 5.72754 14.3039 6.07179 13.6902 6.68555C13.0764 7.2993 12.7322 8.13202 12.7322 9C12.7322 9.64728 12.9243 10.2802 13.2839 10.8184C13.6435 11.3564 14.1548 11.7758 14.7527 12.0234C15.3506 12.271 16.0086 12.3362 16.6433 12.21C17.2781 12.0837 17.8614 11.7721 18.3191 11.3145C18.7768 10.8568 19.0883 10.2735 19.2146 9.63867C19.3409 9.00394 19.2757 8.34597 19.0281 7.74805C18.7804 7.15015 18.361 6.6389 17.823 6.2793C17.2848 5.91969 16.6519 5.72754 16.0046 5.72754Z" fill="#D4AF36"/>
</g>
<defs>
<clipPath id="clip0_19453_14529">
<rect width="32.002" height="32.0011" fill="white"/>
</clipPath>
</defs>
</svg>
